<svg xmlns="http://www.w3.org/2000/svg" width="93" height="18" version="1.2"><style>.a{fill:#f9b403}</style><path d="M79.1 17.4c-.5.2-1-.2-.9-.7l1-5.3-4-3.8c-.4-.3-.2-1 .3-1.1l5.5-.7L83.5.9c.2-.4.8-.4 1 0L87 5.8l5.5.7c.5.1.7.8.3 1.1l-4 3.8 1 5.3c.1.5-.4.9-.9.7L84 14.8zM54.1 17.4c-.5.2-1-.2-.9-.7l1-5.3-4-3.8c-.4-.3-.2-1 .3-1.1l5.5-.7L58.5.9c.2-.4.8-.4 1 0L62 5.8l5.5.7c.5.1.7.8.3 1.1l-4 3.8 1 5.3c.1.5-.4.9-.9.7L59 14.8zM29.1 17.4c-.5.2-1-.2-.9-.7l1-5.3-4-3.8c-.4-.3-.2-1 .3-1.1l5.5-.7L33.5.9c.2-.4.8-.4 1 0L37 5.8l5.5.7c.5.1.7.8.3 1.1l-4 3.8 1 5.3c.1.5-.4.9-.9.7L34 14.8zM4.1 17.4c-.5.2-1-.2-.9-.7l1-5.3-4-3.8c-.4-.3-.2-1 .3-1.1L6 5.8 8.5.9c.2-.4.8-.4 1 0L12 5.8l5.5.7c.5.1.7.8.3 1.1l-4 3.8 1 5.3c.1.5-.4.9-.9.7L9 14.8z" class="a"/></svg>